<svg width="484" height="446" viewBox="0 0 484 446" fill="none" xmlns="http://www.w3.org/2000/svg">
<g clip-path="url(#clip0_2_3)">
<path d="M0.2 228.4C0.2 206 4.6 186.133 13.4 168.8C22.4667 151.467 34.6 138.133 49.8 128.8C65.2667 119.467 82.4667 114.8 101.4 114.8C117.933 114.8 132.333 118.133 144.6 124.8C157.133 131.467 167.133 139.867 174.6 150V118.4H231V340H174.6V307.6C167.4 318 157.4 326.667 144.6 333.6C132.067 340.267 117.533 343.6 101 343.6C82.3333 343.6 65.2667 338.8 49.8 329.2C34.6 319.6 22.4667 306.133 13.4 288.8C4.6 271.2 0.2 251.067 0.2 228.4ZM174.6 229.2C174.6 215.6 171.933 204 166.6 194.4C161.267 184.533 154.067 177.067 145 172C135.933 166.667 126.2 164 115.8 164C105.4 164 95.8 166.533 87 171.6C78.2 176.667 71 184.133 65.4 194C60.0667 203.6 57.4 215.067 57.4 228.4C57.4 241.733 60.0667 253.467 65.4 263.6C71 273.467 78.2 281.067 87 286.4C96.0667 291.733 105.667 294.4 115.8 294.4C126.2 294.4 135.933 291.867 145 286.8C154.067 281.467 161.267 274 166.6 264.4C171.933 254.533 174.6 242.8 174.6 229.2Z" fill="#F15E75"/>
<path d="M307.6 150.4C314.8 140.267 324.667 131.867 337.2 125.2C350 118.267 364.533 114.8 380.8 114.8C399.733 114.8 416.8 119.467 432 128.8C447.467 138.133 459.6 151.467 468.4 168.8C477.467 185.867 482 205.733 482 228.4C482 251.067 477.467 271.2 468.4 288.8C459.6 306.133 447.467 319.6 432 329.2C416.8 338.8 399.733 343.6 380.8 343.6C364.533 343.6 350.133 340.267 337.6 333.6C325.333 326.933 315.333 318.533 307.6 308.4V445.6H251.6V118.4H307.6V150.4ZM424.8 228.4C424.8 215.067 422 203.6 416.4 194C411.067 184.133 403.867 176.667 394.8 171.6C386 166.533 376.4 164 366 164C355.867 164 346.267 166.667 337.2 172C328.4 177.067 321.2 184.533 315.6 194.4C310.267 204.267 307.6 215.867 307.6 229.2C307.6 242.533 310.267 254.133 315.6 264C321.2 273.867 328.4 281.467 337.2 286.8C346.267 291.867 355.867 294.4 366 294.4C376.4 294.4 386 291.733 394.8 286.4C403.867 281.067 411.067 273.467 416.4 263.6C422 253.733 424.8 242 424.8 228.4Z" fill="#343A40"/>
</g>
<defs>
<clipPath id="clip0_2_3">
<rect width="484" height="446" fill="white"/>
</clipPath>
</defs>
</svg>
